<?xml version="1.0" encoding="UTF-8"?>
<svg xmlns="http://www.w3.org/2000/svg" viewBox="-0.5 -2.4 43.22 43.22" width="1024" height="1024">
  <title>Hive Group</title>
  <path d="M41.7,15.611h0a7.525,7.525,0,0,0-.753-.9,53.605,53.605,0,0,1-6.764-9.927A8.316,8.316,0,0,0,33.5,3.413,6.774,6.774,0,0,0,27.83,0H15.212a6.951,6.951,0,0,0-6.1,4.2A53,53,0,0,1,1.874,14.779,6.434,6.434,0,0,0,0,19.218,6.253,6.253,0,0,0,1.318,23h0a7.484,7.484,0,0,0,.668.768,54.206,54.206,0,0,1,6.665,9.267c.876,2.885,3.324,5.371,6.561,5.4H27.83a7.04,7.04,0,0,0,6.281-4.6,52.646,52.646,0,0,1,6.438-9.727,6.585,6.585,0,0,0,2.341-4.891A6.224,6.224,0,0,0,41.7,15.611M15.514,4.86c4.02.1,7.913.1,11.935,0A3.309,3.309,0,0,1,30.656,8.6a3.947,3.947,0,0,1-3.623,3.685c-3.8.12-7.311.12-11.108,0A3.942,3.942,0,0,1,12.307,8.6,3.311,3.311,0,0,1,15.514,4.86M27.449,33.577c-4.022-.1-7.915-.1-11.935,0a3.311,3.311,0,0,1-3.207-3.744,3.944,3.944,0,0,1,3.618-3.684c3.8-.118,7.309-.117,11.108,0a3.948,3.948,0,0,1,3.623,3.686,3.308,3.308,0,0,1-3.207,3.742M33.93,22.543c-9.485-.3-15.545-.3-25.049,0a3.636,3.636,0,0,1-3.952-3.328A3.636,3.636,0,0,1,8.881,15.89c9.5.3,15.564.3,25.049,0a3.629,3.629,0,0,1,3.942,3.326,3.629,3.629,0,0,1-3.942,3.325" fill="#8a6618"/>
</svg>
